<mxfile host="app.diagrams.net" modified="2021-12-30T02:06:17.024Z" agent="5.0 (Windows NT 10.0; Win64; x64) AppleWebKit/537.36 (KHTML, like Gecko) Chrome/96.0.4664.110 Safari/537.36" etag="4H0178LssTQG96-GiqdT" version="16.1.0" type="github">
  <diagram id="npnAdOCzyPmRxbWA9zHv" name="Page-1">
    <mxGraphModel dx="2062" dy="1098" grid="1" gridSize="10" guides="1" tooltips="1" connect="1" arrows="1" fold="1" page="1" pageScale="1" pageWidth="827" pageHeight="1169" math="0" shadow="0">
      <root>
        <mxCell id="0" />
        <mxCell id="1" parent="0" />
        <mxCell id="72Dq3iZWu0vgHWQ0psJH-17" style="edgeStyle=orthogonalEdgeStyle;rounded=0;orthogonalLoop=1;jettySize=auto;html=1;exitX=1;exitY=0.5;exitDx=0;exitDy=0;entryX=0;entryY=0.5;entryDx=0;entryDy=0;" edge="1" parent="1" source="72Dq3iZWu0vgHWQ0psJH-3" target="72Dq3iZWu0vgHWQ0psJH-4">
          <mxGeometry relative="1" as="geometry" />
        </mxCell>
        <mxCell id="72Dq3iZWu0vgHWQ0psJH-3" value="应用" style="ellipse;whiteSpace=wrap;html=1;" vertex="1" parent="1">
          <mxGeometry x="90" y="160" width="260" height="180" as="geometry" />
        </mxCell>
        <mxCell id="72Dq3iZWu0vgHWQ0psJH-4" value="大数据" style="ellipse;whiteSpace=wrap;html=1;" vertex="1" parent="1">
          <mxGeometry x="470" y="160" width="260" height="180" as="geometry" />
        </mxCell>
        <mxCell id="72Dq3iZWu0vgHWQ0psJH-5" value="营销自动化" style="ellipse;whiteSpace=wrap;html=1;" vertex="1" parent="1">
          <mxGeometry x="90" y="460" width="260" height="180" as="geometry" />
        </mxCell>
        <mxCell id="72Dq3iZWu0vgHWQ0psJH-6" value="AI" style="ellipse;whiteSpace=wrap;html=1;" vertex="1" parent="1">
          <mxGeometry x="460" y="460" width="260" height="180" as="geometry" />
        </mxCell>
        <mxCell id="72Dq3iZWu0vgHWQ0psJH-15" value="" style="endArrow=classic;startArrow=classic;html=1;rounded=0;" edge="1" parent="1" source="72Dq3iZWu0vgHWQ0psJH-5" target="72Dq3iZWu0vgHWQ0psJH-4">
          <mxGeometry width="50" height="50" relative="1" as="geometry">
            <mxPoint x="310" y="490" as="sourcePoint" />
            <mxPoint x="360" y="430" as="targetPoint" />
          </mxGeometry>
        </mxCell>
        <mxCell id="72Dq3iZWu0vgHWQ0psJH-16" value="" style="endArrow=classic;startArrow=classic;html=1;rounded=0;exitX=0.535;exitY=-0.011;exitDx=0;exitDy=0;exitPerimeter=0;entryX=0.5;entryY=1;entryDx=0;entryDy=0;" edge="1" parent="1" source="72Dq3iZWu0vgHWQ0psJH-6" target="72Dq3iZWu0vgHWQ0psJH-4">
          <mxGeometry width="50" height="50" relative="1" as="geometry">
            <mxPoint x="550" y="390" as="sourcePoint" />
            <mxPoint x="600" y="340" as="targetPoint" />
          </mxGeometry>
        </mxCell>
        <mxCell id="72Dq3iZWu0vgHWQ0psJH-18" value="" style="endArrow=classic;startArrow=classic;html=1;rounded=0;entryX=0;entryY=0.5;entryDx=0;entryDy=0;exitX=1;exitY=0.5;exitDx=0;exitDy=0;" edge="1" parent="1" source="72Dq3iZWu0vgHWQ0psJH-5" target="72Dq3iZWu0vgHWQ0psJH-6">
          <mxGeometry width="50" height="50" relative="1" as="geometry">
            <mxPoint x="350" y="600" as="sourcePoint" />
            <mxPoint x="400" y="550" as="targetPoint" />
          </mxGeometry>
        </mxCell>
        <mxCell id="72Dq3iZWu0vgHWQ0psJH-23" value="" style="endArrow=classic;startArrow=classic;html=1;rounded=0;entryX=0.5;entryY=1;entryDx=0;entryDy=0;" edge="1" parent="1" target="72Dq3iZWu0vgHWQ0psJH-3">
          <mxGeometry width="50" height="50" relative="1" as="geometry">
            <mxPoint x="220" y="460" as="sourcePoint" />
            <mxPoint x="270" y="410" as="targetPoint" />
          </mxGeometry>
        </mxCell>
      </root>
    </mxGraphModel>
  </diagram>
</mxfile>
